
<svg xmlns="http://www.w3.org/2000/svg" version="1.1" xmlns:xlink="http://www.w3.org/1999/xlink" preserveAspectRatio="none" x="0px" y="0px" width="640px" height="480px" viewBox="0 0 640 480">
<defs>
<g id="movingplayer_0_Layer0_0_FILL">
<path fill="#0066CC" stroke="none" d="
M 86.2 63
Q 87 57.5 87 51.5 87 30.15 76.45 15.05 67.7 2.6 56 0.45 53.55 0 51 0 36.1 0 25.55 15.05 15 30.15 15 51.5 15 57.5 15.85 63 17.95 77.1 25.55 87.9 33.55 99.3 44 102.1
L 44 86 44 102.1
Q 47.35 103 51 103 53.55 103 56 102.55 67.7 100.4 76.45 87.9 84.05 77.1 86.2 63 Z"/>
</g>

<g id="_________0_Layer0_0_FILL">
<path fill="#FFFFFF" stroke="none" d="
M -1128.6 -199.05
Q -1128.6 -198.7 -1128.55 -198.4 -1127.7 -191.6 -1121.15 -189.8 -1114.5 -187.95 -1110.6 -193.7 -1106.7 -199.45 -1110.95 -204.95 -1115.2 -210.4 -1121.75 -208.15 -1128.2 -205.9 -1128.6 -199.05
M -1060.55 -276.05
Q -1058.55 -278.05 -1057.95 -280.75 -1057.05 -284.55 -1058.9 -287.95 -1060.8 -291.4 -1064.65 -292.6 -1067.95 -293.6 -1071.15 -292.25 -1075.1 -290.65 -1077.4 -286.9 -1079.638671875 -283.27734375 -1081.6 -279.5 -1082.4646484375 -279.387890625 -1083.35 -279.2 -1084.1 -278.9 -1084.85 -278.6 -1085.0876953125 -278.4890625 -1085.35 -278.4 -1085.4349609375 -278.3927734375 -1085.55 -278.4 -1087.05 -278.45 -1088.5 -278.05 -1089.955078125 -277.6568359375 -1091.2 -276.85 -1096.27734375 -277.605078125 -1099.9 -273.7 -1101.6640625 -271.8404296875 -1102.65 -269.45 -1102.8525390625 -269.3486328125 -1103.05 -269.25 -1103.45 -269.1 -1103.85 -268.9 -1104.7 -268.75 -1105.5 -268.55 -1106.35 -268.4 -1107.15 -268.15 -1107.95 -267.95 -1108.75 -267.65 -1109.55 -267.4 -1110.35 -267.1 -1111.05 -266.8 -1111.8 -266.55 -1112.45 -266.3 -1113.15 -266.1 -1113.8 -266 -1114.45 -265.9 -1115.45 -265.7 -1116.4 -265.35 -1117.3 -264.95 -1118.15 -264.4 -1118.95 -263.85 -1119.65 -263.15 -1120.35 -262.45 -1120.9 -261.6 -1121.45 -260.8 -1121.85 -259.9 -1122.2 -258.95 -1122.4 -257.95 -1122.65 -257.85 -1122.85 -257.75 -1123.1 -257.65 -1123.3 -257.5 -1123.65 -257.3 -1124.05 -257.05 -1124.4 -256.8 -1124.75 -256.55 -1125.8 -256.2 -1126.85 -255.75 -1128.5 -255 -1129.9 -253.75 -1131.15 -252.55 -1132 -251.05 -1132.9 -249.35 -1133.1 -247.5 -1133.25 -245.9 -1132.9 -244.35 -1132.6 -242.75 -1131.8 -241.35 -1131.05 -240.15 -1130 -239.15 -1129.676953125 -238.8578125 -1129.35 -238.6 -1130.1859375 -238.008984375 -1131.05 -237.45 -1132.6 -236.45 -1134.05 -235.2 -1134.3 -234.95 -1134.55 -234.65 -1134.8 -234.35 -1135.05 -234 -1135.3 -233.7 -1135.55 -233.4 -1135.75 -233.05 -1136 -232.75 -1136.2 -232.45 -1136.45 -232.1 -1136.65 -231.75 -1136.85 -231.4 -1137.05 -231.05 -1137.25 -230.65 -1137.4 -230.3 -1137.55 -229.9 -1138.15 -228.95 -1138.55 -227.9 -1138.95 -226.85 -1139.1 -225.75 -1139.25 -224.65 -1139.15 -223.55 -1139.05 -222.35 -1138.7 -221.25 -1138.3 -220.1 -1137.7 -219.1 -1137.1 -218.1 -1136.25 -217.25 -1135.95 -217 -1135.65 -216.75 -1134.15 -215.45 -1132.25 -214.85 -1130.35 -214.2 -1128.35 -214.35 -1126.4 -214.55 -1124.7 -215.45 -1122.9 -216.4 -1121.55 -217.85 -1121.4802734375 -217.922265625 -1121.4 -218 -1121.0666015625 -217.4962890625 -1120.65 -217.05 -1119.95 -216.3 -1119.1 -215.65 -1118.2 -215.05 -1117.3 -214.6 -1116.35 -214.15 -1115.35 -213.9 -1114.05 -213.5 -1112.65 -213.5 -1112.15 -213.5 -1111.65 -213.55 -1110.4 -213.6 -1109.3 -213.9 -1108.1 -214.25 -1107 -214.85 -1106.1 -215.4 -1105.25 -216.15 -1104.5 -216.8 -1103.85 -217.6 -1103.3 -218.3 -1102.8 -219.05 -1101.15 -220.8 -1099.4 -222.45 -1094.6 -227.05 -1090.55 -232.35 -1085.75 -238.7 -1081.05 -245.2 -1076.75 -251.1 -1072.35 -256.95 -1070.25 -259.75 -1068.35 -262.7 -1064.15 -269.2 -1060.55 -276.05
M -486.5 -139.9
Q -486.95 -139.65 -487.35 -139.35 -487.8 -139.05 -488.15 -138.7 -488.55 -138.35 -488.9 -137.95 -489.25 -137.6 -489.55 -137.15 -489.85 -136.75 -490.1 -136.3 -490.35 -135.85 -490.6 -135.4 -490.8 -134.9 -491 -134.45 -491.15 -133.95 -491.25 -133.4 -491.35 -132.9 -491.45 -132.4 -491.45 -131.85 -491.5 -131.3 -491.45 -130.75 -491.45 -130.2 -491.35 -129.7 -491.25 -129.2 -491.15 -128.65 -491 -128.15 -490.8 -127.7 -490.6 -127.2 -490.35 -126.75 -490.1 -126.3 -489.85 -125.85 -489.55 -125.45 -489.25 -125 -488.9 -124.65 -488.55 -124.25 -488.15 -123.9 -487.8 -123.55 -487.35 -123.25 -486.95 -122.95 -486.5 -122.7 -486.05 -122.45 -485.6 -122.2 -485.1 -122 -484.65 -121.8 -484.15 -121.65 -483.6 -121.55 -483.1 -121.45 -482.6 -121.35 -482.05 -121.35 -481.5 -121.3 -480.95 -121.35 -480.4 -121.35 -479.9 -121.45 -479.4 -121.55 -478.85 -121.65 -478.35 -121.8 -477.9 -122 -477.4 -122.2 -476.95 -122.45 -476.5 -122.7 -476.05 -122.95 -475.65 -123.25 -475.2 -123.55 -474.85 -123.9 -474.45 -124.25 -474.1 -124.65 -473.75 -125 -473.45 -125.45 -473.15 -125.85 -472.9 -126.3 -472.65 -126.75 -472.4 -127.2 -472.2 -127.7 -472 -128.15 -471.85 -128.65 -471.75 -129.2 -471.65 -129.7 -471.55 -130.2 -471.55 -130.75 -471.5 -131.3 -471.55 -131.85 -471.55 -132.4 -471.65 -132.9 -471.75 -133.4 -471.85 -133.95 -472 -134.45 -472.2 -134.9 -472.4 -135.4 -472.65 -135.85 -472.9 -136.3 -473.15 -136.75 -473.45 -137.15 -473.75 -137.6 -474.1 -137.95 -474.45 -138.35 -474.85 -138.7 -475.2 -139.05 -475.65 -139.35 -476.05 -139.65 -476.5 -139.9 -476.95 -140.15 -477.4 -140.4 -477.9 -140.6 -478.35 -140.8 -478.85 -140.95 -479.4 -141.05 -479.9 -141.15 -480.4 -141.25 -480.95 -141.25 -481.5 -141.3 -482.05 -141.25 -482.6 -141.25 -483.1 -141.15 -483.6 -141.05 -484.15 -140.95 -484.65 -140.8 -485.1 -140.6 -485.6 -140.4 -486.05 -140.15 -486.5 -139.9 Z"/>
</g>

<g id="_________0_Layer0_1_FILL">
<path fill="#252525" stroke="none" d="
M 540 78
L 536 78 536 82 540 82 540 78 Z"/>
</g>

<g id="_________0_Layer0_2_FILL">
<path fill="#FFFFFF" stroke="none" d="
M -1093.85 -43.3
Q -1095.2 -43.65 -1096.5 -43.85 -1097.584375 -43.980078125 -1098.7 -44 -1098.8779296875 -44 -1099.05 -44 -1100.4 -43.95 -1101.75 -43.75 -1102.75 -43.65 -1103.7 -43.2 -1104.5 -42.85 -1105.3 -42.5 -1106.05 -42.15 -1106.8 -41.8 -1108.1 -40.95 -1109.05 -39.75 -1109.95 -38.6 -1110.6 -37.3 -1111.25 -35.95 -1111.45 -34.5 -1111.7 -32.55 -1111.6 -30.55 -1111.55 -28.85 -1111.15 -27.2 -1110.95 -26.3 -1110.6 -25.4 -1110.55 -25 -1110.55 -24.6 -1110.45 -22.1 -1109.45 -19.8 -1108.3 -17.05 -1106.75 -14.4 -1105.5 -12.2 -1104.25 -10.05 -1102.95 -7.85 -1101.55 -5.7 -1100.25 -3.75 -1098.35 -2.45 -1098.2 -2.3 -1098.05 -2.1 -1097.35 -1.3 -1096.5 -0.6 -1095.6 0.15 -1094.5 0.65 -1093 1.4 -1091.35 1.6 -1090.15 1.75 -1088.9 1.55 -1088.1 1.4 -1087.3 1.2 -1086.85 1.05 -1086.35 0.9 -1086.25 1.1 -1086.15 1.35 -1086 1.65 -1085.85 1.95 -1085.7 2.25 -1085.55 2.5 -1085.3 2.85 -1085 3.25 -1084.7 3.6 -1084.45 3.95 -1084.15 4.3 -1083.85 4.7 -1083.6 5.05 -1083.3 5.4 -1083 5.75 -1082.7 6.1 -1081.75 7.15 -1080.45 7.8 -1078.15 9 -1075.65 9 -1072.4 9 -1069.8 7.1 -1067.5 5.45 -1066.4 2.85 -1065.15 -0.15 -1065.95 -3.3 -1066.65 -5.9 -1068.45 -7.9 -1068.6 -8.25 -1068.75 -8.55 -1068.95 -8.95 -1069.1 -9.3 -1069.25 -9.7 -1069.45 -10.05 -1069.7 -10.45 -1069.95 -10.8 -1070.25 -11.2 -1070.5 -11.55 -1070.7 -11.9 -1070.9 -12.2 -1071.1 -12.55 -1071.3 -12.9 -1071.5 -13.25 -1071.65 -13.6 -1071.7 -13.65 -1071.7 -13.7 -1071.8 -14.55 -1071.9 -15.4 -1071.94453125 -15.65234375 -1072 -15.9 -1072.109375 -16.4875 -1072.25 -17.05 -1072.4 -17.9 -1072.7 -18.7 -1072.8 -19.15 -1073 -19.55 -1073.15 -19.95 -1073.35 -20.35 -1073.5 -20.6 -1073.65 -20.9 -1073.8 -21.2 -1073.9 -21.5 -1074.6 -24.05 -1075.5 -26.5 -1076.25 -28.6 -1077.35 -30.5 -1078.35 -32.15 -1079.35 -33.8 -1080.65 -35.8 -1082.6 -37.15 -1083.9 -38.05 -1085.4 -38.55 -1085.6 -38.7 -1085.85 -38.85 -1086.05 -39.05 -1086.3 -39.2 -1086.6 -39.45 -1086.9 -39.7 -1087.25 -39.85 -1087.55 -40.05 -1087.95 -40.2 -1088.3 -40.4 -1088.7 -40.55 -1089.05 -40.7 -1089.45 -40.85 -1089.85 -41 -1090.2 -41.15 -1090.6 -41.3 -1090.9 -41.55 -1091.2 -41.8 -1091.5 -42 -1091.85 -42.25 -1092.15 -42.45 -1092.5 -42.65 -1092.85 -42.85 -1093.15 -43 -1093.5 -43.15 -1093.85 -43.3
M -1070.1 -254.6
Q -1067.656640625 -256.298828125 -1066.4 -258.55 -1064.896484375 -261.135546875 -1064.95 -264.45 -1065 -270.45 -1070.55 -272.95 -1076 -275.45 -1080.9 -271.9 -1081.35 -272.5 -1081.9 -273.05 -1085 -276.55 -1089.65 -277.1 -1094.65 -277.7 -1099.2 -275.7 -1103.25 -273.9 -1106.55 -271 -1110.5 -267.6 -1113.55 -263.4 -1116.6 -259.3 -1119.65 -255.2 -1119.8 -254.85 -1119.95 -254.45 -1120.3 -253.7 -1120.6 -252.95 -1120.85 -252.15 -1121.05 -251.35 -1121.2 -250.55 -1121.35 -249.65 -1121.45 -248.8 -1121.5 -247.95 -1121.55 -247.35 -1121.55 -246.75 -1121.8 -246 -1122 -245.2 -1122.7 -242.05 -1122.65 -238.8 -1122.6 -235.45 -1122.65 -232.15 -1122.75 -228.85 -1122.1 -225.6 -1121.45 -222.25 -1119.75 -219.3 -1118.2 -216.65 -1115.65 -214.95 -1115.25 -214.75 -1114.85 -214.6 -1114.45 -214.45 -1114.05 -214.25 -1113.65 -214.1 -1113.25 -213.95 -1111.5 -213.45 -1109.75 -213.6 -1107.5 -213.8 -1105.55 -214.95 -1104.05 -215.85 -1102.9 -217.2 -1101.75 -218.55 -1101.15 -220.25 -1100.7859375 -221.281640625 -1100.65 -222.35 -1100.55 -223.0423828125 -1100.55 -223.75 -1100.55 -224.5525390625 -1100.7 -225.35 -1100.845703125 -226.3892578125 -1101.25 -227.4 -1101.45 -227.7 -1101.6 -228.05 -1101.8 -228.35 -1102 -228.6 -1102.25 -229 -1102.5 -229.35
L -1102.55 -229.4
Q -1102.35 -229.45 -1102.15 -229.45 -1101.8 -229.55 -1101.45 -229.7 -1101.1 -229.8 -1100.75 -229.95
L -1100.75 -229.95
Q -1100.3919921875 -230.1052734375 -1100.1 -230.3 -1099.75 -230.45 -1099.45 -230.65 -1099.15 -230.85 -1098.85 -231.05 -1098.55 -231.3 -1098.3 -231.55 -1098 -231.75 -1097.75 -232.05 -1097.45 -232.4 -1097.15 -232.75 -1096.85 -233.15 -1096.6 -233.5 -1096.3 -233.75 -1096.05 -234.05 -1095.75 -234.35 -1095.45 -234.65 -1095.2 -234.9 -1094.9 -235.2 -1092.75 -236.95 -1090.4 -238.45 -1084.9 -241.9 -1080.15 -246.4 -1075.45 -250.85 -1070.1 -254.6
M 393.8 -25.3
Q 393.45 -25.05 393.1 -24.8 392.85 -24.65 392.55 -24.5 392.25 -24.3 391.95 -24.15 391.6 -23.9 391.25 -23.65 390.9 -23.4 390.6 -23.1 390.25 -22.85 389.9 -22.6 389.6 -22.3 389.3 -22.05 388.15 -20.8 387.2 -19.45 386.25 -18.2 385.35 -16.9 384.969921875 -16.37734375 384.55 -15.9 384.0748046875 -15.372265625 383.55 -14.9 382.2 -13.7 381.3 -12.1 380.45 -10.45 380.3 -8.6 380.25 -7.35 380.15 -6.1 379.95 -5.2 379.85 -4.35 379.7 -3 379.95 -1.7 380.2 -0.1 380.95 1.25 381.65 2.55 382.7 3.6 383.75 4.65 385.05 5.35 386.05 5.9 387.1 6.2 387.55 6.25 388 6.3 388.45 6.35 388.9 6.45 389.35 6.5 389.75 6.55 390.7 6.65 391.6 6.55 393.65 6.35 395.5 5.5 397.3 4.7 398.95 3.65 400.45 2.65 402 1.8 403.75 0.8 405.4 -0.4 407 -1.65 408.45 -3.05 409.45 -3.65 410.3 -4.3 411.25 -5 412.1 -5.8 413.1 -6.65 414.05 -7.6 414.95 -8.5 415.8 -9.4 416.65 -10.3 417.4 -11.3 418.15 -12.2 418.85 -13.1 419.5 -13.55 420.15 -14.1 420.75 -14.6 421.35 -15.15 421.95 -15.7 422.45 -16.3 422.95 -16.95 423.4 -17.65 423.9 -18.45 424.35 -19.25 424.8 -20.1 425.25 -20.9 425.55 -21.25 425.85 -21.6 426.75 -22.7 427.55 -23.8 428.3 -24.85 429.05 -26 429.7 -27.05 430.25 -28.15 430.6 -28.85 430.9 -29.55 431.25 -30.25 431.5 -31 431.6 -31.35 431.65 -31.75 431.75 -32.1 431.8 -32.4 431.85 -32.6 431.95 -32.75 432.15 -33.1 432.3 -33.45 432.5 -33.8 432.6 -34.15 432.75 -34.5 432.85 -34.85 433 -35.2 433.05 -35.55 433.15 -35.95 433.2 -36.3 433.25 -36.65 433.3 -37.05 433.3 -37.45 433.35 -37.8 433.35 -38.1 433.4 -38.4 433.4 -38.7 433.35 -39.05 433.35 -39.35 433.3 -39.7 433.25 -40 433.2 -40.3 434 -40.95 434.85 -41.5 438.1 -43.55 441.35 -45.65 444.45 -47.6 445.4 -51.05 446.4 -54.65 444.8 -58 443.35 -61 440.45 -62.5 437.15 -64.2 433.5 -63.45 433.1 -63.6 432.65 -63.7 429.4 -64.5 426.3 -63.2 423.6 -62.05 422.1 -59.55 420.65 -57.15 419.05 -54.9 417.1 -52.2 414.8 -49.8 412.6 -47.6 410.85 -45 410.5 -44.75 410.2 -44.5 409.9 -44.25 409.6 -43.95 409.35 -43.65 409.1 -43.35 408.905859375 -43.155859375 408.75 -42.95 408.6705078125 -42.855859375 408.6 -42.75 408.4 -42.4 408.2 -42.05 408 -41.7 407.85 -41.35 407.7 -41 407.55 -40.65 407.4 -40.3 407.25 -39.95 407.1 -39.6 406.95 -39.25 406.85 -38.9 406.7 -38.55 406.65 -38.45 406.65 -38.4 406.4 -38.15 406.2 -37.85 406 -37.6 405.8 -37.3 405.55 -37.05 405.3 -36.75 405.05 -36.5 404.8 -36.25 404.55 -36 404.25 -35.75 404 -35.5 403.75 -35.2 403.45 -34.95 403.2 -34.65 402.95 -34.35 402.7 -34.05 402.5 -33.75 402.25 -33.4 402.05 -33.05 401.85 -32.75 401.55 -32.4 401.25 -32.1 400.65 -31.5 400.05 -30.85 399.4 -30.25 398.8 -29.65 398.4 -29.25 398 -28.85 397.7 -28.55 397.4 -28.25 397.1 -28 396.8 -27.7 396.5 -27.45 396.25 -27.15 395.9 -26.95 395.6 -26.7 395.3 -26.5 395 -26.25 394.7 -26.05 394.45 -25.8 394.1 -25.55 393.8 -25.3
M 383.8 -269.1
Q 382.3 -269.1 380.9 -268.65 379.8 -268.3 378.85 -267.75 377.9 -267.2 377.1 -266.45 376.25 -265.7 375.65 -264.8 375.3 -264.95 374.95 -265.05 374.6 -265.2 374.2 -265.3 373.9 -265.4 373.55 -265.5 373.2 -265.6 372.85 -265.7 372.6 -265.85 372.35 -265.95 372.15 -266.15 372 -266.3 371.8 -266.5 371.6 -266.7 371.4 -266.85 371.2 -267 371.05 -267.15 370.85 -267.3 370.55 -267.65 370.25 -268.05 369.95 -268.4 369.65 -268.75 369.45 -269 369.2 -269.25 368.65 -269.7 368.05 -270.1 365.85 -271.5 363.25 -271.65 360.5 -271.85 358.05 -270.6 355.9 -269.5 354.5 -267.55 352.6 -264.95 352.6 -261.7 352.6 -260.0603515625 353.1 -258.55 353.4197265625 -257.573046875 353.95 -256.65 354.15 -256.4 354.35 -256.1 354.6 -255.85 354.8 -255.55 355 -255.25 355.25 -254.95 355.5 -254.6 355.75 -254.3 356 -253.95 356.25 -253.65 356.5 -253.35 356.75 -253.05 356.9 -252.85 357.1 -252.65 357.35 -252.45 357.6 -252.25 357.85 -252.05 358.15 -251.85 358.75 -251.2 359.35 -250.6 359.95 -250.05 360.6 -249.55 361.3 -249.05 362.05 -248.65 362.85 -248.2 363.65 -247.9 364.5 -247.55 365.35 -247.25 365.65 -247.1 366 -247 366.3 -246.85 366.65 -246.75 367 -246.6 367.3 -246.5 367.65 -246.25 368 -246.05 368.3 -245.85 368.65 -245.65 369 -245.45 369.35 -245.3 369.7 -245.1 370.1 -244.95 370.5 -244.8 370.9 -244.7 371.4 -244.55 371.85 -244.45 372.3 -244.35 372.8 -244.3 373.25 -244.25 373.7 -244.15 373.85 -244.1 373.95 -244.05 374.3 -243.75 374.65 -243.4 375 -243.1 375.35 -242.8 375.7 -242.55 376.05 -242.3 376.4 -242.05 376.8 -241.8 377.35 -241.3 377.95 -240.85 378.5 -240.4 379.15 -240.05 379.75 -239.65 380.4 -239.35 381.1 -239.05 381.85 -238.85 382.75 -238.55 383.65 -238.4 384.6 -238.3 385.55 -238.2 385.9 -238.05 386.25 -237.9 386.55 -237.75 386.85 -237.6 387.15 -237.45 387.4 -237.35 387.65 -237.2 387.9 -237.1 388.3 -236.9 388.65 -236.7 389.05 -236.55 389.4 -236.35 389.7 -236.15 389.95 -236 390.2 -235.85 390.45 -235.65 390.55 -235.6 390.6 -235.55 390.95 -235.25 391.25 -234.95 391.55 -234.7 391.9 -234.4 392.25 -234.15 392.6 -233.9 392.9 -233.65 393.25 -233.4 393.6 -233.15 393.9 -232.9 394.35 -232.7 394.75 -232.55 395.15 -232.35 395.55 -232.2 395.95 -232 396.4 -231.85 396.8 -231.7 397.2 -231.6 397.3 -231.55 397.4 -231.55 397.75 -231.35 398.05 -231.1 398.35 -230.9 398.65 -230.7 398.95 -230.5 399.25 -230.3 399.55 -230.1 399.9 -229.9 400.3 -229.65 400.7 -229.45 401.1 -229.3 401.55 -229.15 401.95 -229 402.35 -228.9 402.75 -228.8 403.15 -228.7 403.6 -228.6 404 -228.5 404.15 -228.45 404.3 -228.35 404.55 -228.1 404.8 -227.9 405.05 -227.7 405.3 -227.55 405.55 -227.35 405.8 -227.15 406 -226.9 406.25 -226.65 406.490234375 -226.385546875 406.75 -226.15 407.0384765625 -225.859765625 407.35 -225.6 407.6 -225.3 407.95 -225.1 408.25 -224.85 408.6 -224.65 408.95 -224.45 409.3 -224.25 409.65 -224.1 410 -223.95 410.35 -223.75 410.7 -223.65 411.1 -223.5 411.45 -223.35 411.85 -223.2 412.2 -223.05 412.65 -222.95 413.05 -222.85 413.5 -222.75 413.9 -222.7 415.15 -222.6 416.4 -222.8 418.35 -223.15 420.1 -224.2 422.1 -225.4 423.35 -227.4 424.55 -229.35 424.8 -231.65 425.1 -233.9 424.35 -236.05 423.65 -238.05 422.3 -239.7 422.05 -239.95 421.8 -240.15 421.45 -240.5 421.1 -240.8 420.85 -241.1 420.65 -241.4 420.75 -241.8 420.8 -242.2 420.9 -242.6 420.95 -243.05 421 -243.45 421 -243.85 421.05 -244.35 421 -244.8 421 -245.25 420.95 -245.7 420.85 -246.15 420.8 -246.6 420.7 -247.05 420.6 -247.5 420.5 -247.85 420.4 -248.25 420.1 -248.9 419.75 -249.55 419.25 -250.55 418.55 -251.45 417.65 -252.75 416.8 -254.1 415.95 -255.55 414.95 -256.95 414.2 -258.05 413.4 -259.1 412.6 -260.15 411.7 -261.15 411.1 -262.2 410.45 -263.15 410 -263.75 409.5 -264.3 409 -264.8 408.45 -265.3 407.9 -265.75 407.25 -266.1 406.55 -266.55 405.75 -266.9 405 -267.2 404.2 -267.55 403.8 -267.6 403.4 -267.65 402.95 -267.75 402.55 -267.8 402.15 -267.85 401.75 -267.9 401.3 -267.95 400.9 -268 400.5 -268 400.05 -268.05 399.7 -268.05 399.3 -268.05 398.9 -268.05 398.55 -268.05 398.15 -268.1 397.75 -268.1 397.4 -268.1 397 -268.1 396.7 -268.2 396.35 -268.3 396.05 -268.4 395.7 -268.5 395.25 -268.6 394.8 -268.7 394.4 -268.75 393.95 -268.8 393.5 -268.85 393.1 -268.8 392.65 -268.8 392.25 -268.75 391.8 -268.7 391.4 -268.65 390.95 -268.6 390.5 -268.55 390.1 -268.45 389.65 -268.4 389.35 -268.35 389.1 -268.25 388.8 -268.2 388.55 -268.1 387.35 -268.7 386.05 -268.9 384.95 -269.1 383.8 -269.1 Z"/>

<path fill="#252525" stroke="none" d="
M 353.95 -256.65
Q 353.4197265625 -257.573046875 353.1 -258.55
L -1066.4 -258.55
Q -1067.656640625 -256.298828125 -1070.1 -254.6 -1075.45 -250.85 -1080.15 -246.4 -1084.9 -241.9 -1090.4 -238.45 -1092.75 -236.95 -1094.9 -235.2 -1095.2 -234.9 -1095.45 -234.65 -1095.75 -234.35 -1096.05 -234.05 -1096.3 -233.75 -1096.6 -233.5 -1096.85 -233.15 -1097.15 -232.75 -1097.45 -232.4 -1097.75 -232.05 -1098 -231.75 -1098.3 -231.55 -1098.55 -231.3 -1098.85 -231.05 -1099.15 -230.85 -1099.45 -230.65 -1099.75 -230.45 -1100.1 -230.3 -1100.3919921875 -230.1052734375 -1100.75 -229.95
L -1100.7 -225.35
Q -1100.55 -224.5525390625 -1100.55 -223.75 -1100.55 -223.0423828125 -1100.65 -222.35
L -1098.7 -44
Q -1097.584375 -43.980078125 -1096.5 -43.85 -1095.2 -43.65 -1093.85 -43.3 -1093.5 -43.15 -1093.15 -43 -1092.85 -42.85 -1092.5 -42.65 -1092.15 -42.45 -1091.85 -42.25 -1091.5 -42 -1091.2 -41.8 -1090.9 -41.55 -1090.6 -41.3 -1090.2 -41.15 -1089.85 -41 -1089.45 -40.85 -1089.05 -40.7 -1088.7 -40.55 -1088.3 -40.4 -1087.95 -40.2 -1087.55 -40.05 -1087.25 -39.85 -1086.9 -39.7 -1086.6 -39.45 -1086.3 -39.2 -1086.05 -39.05 -1085.85 -38.85 -1085.6 -38.7 -1085.4 -38.55 -1083.9 -38.05 -1082.6 -37.15 -1080.65 -35.8 -1079.35 -33.8 -1078.35 -32.15 -1077.35 -30.5 -1076.25 -28.6 -1075.5 -26.5 -1074.6 -24.05 -1073.9 -21.5 -1073.8 -21.2 -1073.65 -20.9 -1073.5 -20.6 -1073.35 -20.35 -1073.15 -19.95 -1073 -19.55 -1072.8 -19.15 -1072.7 -18.7 -1072.4 -17.9 -1072.25 -17.05 -1072.109375 -16.4875 -1072 -15.9
L 384.55 -15.9
Q 384.969921875 -16.37734375 385.35 -16.9 386.25 -18.2 387.2 -19.45 388.15 -20.8 389.3 -22.05 389.6 -22.3 389.9 -22.6 390.25 -22.85 390.6 -23.1 390.9 -23.4 391.25 -23.65 391.6 -23.9 391.95 -24.15 392.25 -24.3 392.55 -24.5 392.85 -24.65 393.1 -24.8 393.45 -25.05 393.8 -25.3 394.1 -25.55 394.45 -25.8 394.7 -26.05 395 -26.25 395.3 -26.5 395.6 -26.7 395.9 -26.95 396.25 -27.15 396.5 -27.45 396.8 -27.7 397.1 -28 397.4 -28.25 397.7 -28.55 398 -28.85 398.4 -29.25 398.8 -29.65 399.4 -30.25 400.05 -30.85 400.65 -31.5 401.25 -32.1 401.55 -32.4 401.85 -32.75 402.05 -33.05 402.25 -33.4 402.5 -33.75 402.7 -34.05 402.95 -34.35 403.2 -34.65 403.45 -34.95 403.75 -35.2 404 -35.5 404.25 -35.75 404.55 -36 404.8 -36.25 405.05 -36.5 405.3 -36.75 405.55 -37.05 405.8 -37.3 406 -37.6 406.2 -37.85 406.4 -38.15 406.65 -38.4 406.65 -38.45 406.7 -38.55 406.85 -38.9 406.95 -39.25 407.1 -39.6 407.25 -39.95 407.4 -40.3 407.55 -40.65 407.7 -41 407.85 -41.35 408 -41.7 408.2 -42.05 408.4 -42.4 408.6 -42.75 408.6705078125 -42.855859375 408.75 -42.95
L 406.75 -226.15
Q 406.490234375 -226.385546875 406.25 -226.65 406 -226.9 405.8 -227.15 405.55 -227.35 405.3 -227.55 405.05 -227.7 404.8 -227.9 404.55 -228.1 404.3 -228.35 404.15 -228.45 404 -228.5 403.6 -228.6 403.15 -228.7 402.75 -228.8 402.35 -228.9 401.95 -229 401.55 -229.15 401.1 -229.3 400.7 -229.45 400.3 -229.65 399.9 -229.9 399.55 -230.1 399.25 -230.3 398.95 -230.5 398.65 -230.7 398.35 -230.9 398.05 -231.1 397.75 -231.35 397.4 -231.55 397.3 -231.55 397.2 -231.6 396.8 -231.7 396.4 -231.85 395.95 -232 395.55 -232.2 395.15 -232.35 394.75 -232.55 394.35 -232.7 393.9 -232.9 393.6 -233.15 393.25 -233.4 392.9 -233.65 392.6 -233.9 392.25 -234.15 391.9 -234.4 391.55 -234.7 391.25 -234.95 390.95 -235.25 390.6 -235.55 390.55 -235.6 390.45 -235.65 390.2 -235.85 389.95 -236 389.7 -236.15 389.4 -236.35 389.05 -236.55 388.65 -236.7 388.3 -236.9 387.9 -237.1 387.65 -237.2 387.4 -237.35 387.15 -237.45 386.85 -237.6 386.55 -237.75 386.25 -237.9 385.9 -238.05 385.55 -238.2 384.6 -238.3 383.65 -238.4 382.75 -238.55 381.85 -238.85 381.1 -239.05 380.4 -239.35 379.75 -239.65 379.15 -240.05 378.5 -240.4 377.95 -240.85 377.35 -241.3 376.8 -241.8 376.4 -242.05 376.05 -242.3 375.7 -242.55 375.35 -242.8 375 -243.1 374.65 -243.4 374.3 -243.75 373.95 -244.05 373.85 -244.1 373.7 -244.15 373.25 -244.25 372.8 -244.3 372.3 -244.35 371.85 -244.45 371.4 -244.55 370.9 -244.7 370.5 -244.8 370.1 -244.95 369.7 -245.1 369.35 -245.3 369 -245.45 368.65 -245.65 368.3 -245.85 368 -246.05 367.65 -246.25 367.3 -246.5 367 -246.6 366.65 -246.75 366.3 -246.85 366 -247 365.65 -247.1 365.35 -247.25 364.5 -247.55 363.65 -247.9 362.85 -248.2 362.05 -248.65 361.3 -249.05 360.6 -249.55 359.95 -250.05 359.35 -250.6 358.75 -251.2 358.15 -251.85 357.85 -252.05 357.6 -252.25 357.35 -252.45 357.1 -252.65 356.9 -252.85 356.75 -253.05 356.5 -253.35 356.25 -253.65 356 -253.95 355.75 -254.3 355.5 -254.6 355.25 -254.95 355 -255.25 354.8 -255.55 354.6 -255.85 354.35 -256.1 354.15 -256.4 353.95 -256.65 Z"/>
</g>

<path id="movingplayer_0_Layer0_0_1_STROKES" stroke="#000000" stroke-width="1" stroke-linejoin="round" stroke-linecap="round" fill="none" d="
M 44 102.1
L 44 150.5 117.95 121
M 10 251.95
L 44 198.95 44 150.5 0 124
M 44 102.1
L 44 86
M 44 198.95
L 78.95 258.95"/>

<path id="_________0_Layer0_0_1_STROKES" stroke="#000000" stroke-width="1" stroke-linejoin="round" stroke-linecap="round" fill="none" d="
M 488 237
L 488 230"/>

<path id="_________0_Layer0_1_1_STROKES" stroke="#000000" stroke-width="1" stroke-linejoin="round" stroke-linecap="round" fill="none" d="
M 536 78
L 540 78 540 82 536 82 536 78 Z"/>

<path id="_________0_Layer0_2_1_STROKES" stroke="#000000" stroke-width="1" stroke-linejoin="round" stroke-linecap="round" fill="none" d="
M 406.75 -226.125
L 408.75 -42.95
M 384.55 -15.9
L -1072 -15.9
M -1098.7 -44
L -1100.65 -222.35
M -1066.375 -258.55
L 353.1 -258.55
M -1100.675 -225.325
L -1100.725 -229.95"/>
</defs>

<g transform="matrix( 1, 0, 0, 1, 300.5,71.85) ">
<g transform="matrix( 1, 0, 0, 1, 0,0) ">
<use xlink:href="#movingplayer_0_Layer0_0_FILL"/>

<use xlink:href="#movingplayer_0_Layer0_0_1_STROKES"/>
</g>
</g>

<g id="movieClip_1" transform="matrix( 1, 0, 0, 1, 275.25,221.35) ">
<g transform="matrix( 1, 0, 0, 1, -211.7,-210.05) ">
<clipPath id="Mask_Mask_1">
<rect x="-2" y="-2" width="203.3" height="39.4" fill="#FFFFFF" stroke="none"/>
</clipPath>

<text clip-path="url(#Mask_Mask_1)" writing-mode="lr"><tspan x="0" y="28.5" baseline-shift="0%" font-family="Times New Roman" font-size="32" fill="#252525" xml:space="preserve">GAME START</tspan></text>
</g>

<g id="mainSceneButton" transform="matrix( 0.205047607421875, -0.0010528564453125, 0.0014190673828125, 0.2743988037109375, 102.6,145.85) ">
<g transform="matrix( 1, 0, 0, 1, 0,0) ">
<use xlink:href="#_________0_Layer0_0_FILL"/>

<use xlink:href="#_________0_Layer0_0_1_STROKES"/>
</g>

<g transform="matrix( 1, 0, 0, 1, 0,0) ">
<use xlink:href="#_________0_Layer0_1_FILL"/>

<use xlink:href="#_________0_Layer0_1_1_STROKES"/>
</g>

<g transform="matrix( 1, 0, 0, 1, 0,0) ">
<use xlink:href="#_________0_Layer0_2_FILL"/>

<use xlink:href="#_________0_Layer0_2_1_STROKES"/>
</g>

<g transform="matrix( 1, 0, 0, 1, -687.4,-187.8) ">
<clipPath id="Mask_Mask_2">
<rect x="-2" y="-2" width="718.75" height="110.3" fill="#FFFFFF" stroke="none"/>
</clipPath>

<text clip-path="url(#Mask_Mask_2)" writing-mode="lr"><tspan x="0" y="85.55" baseline-shift="0%" font-family="Times New Roman" font-size="96" fill="#00FFFF" xml:space="preserve">ダンジョンにもぐる</tspan></text>
</g>
</g>
</g>
</svg>
